# xmcd CD database file
#
# Track frame offsets:
#	150
#	9910
#	27300
#	39562
#	51267
#	65165
#	79560
#	93330
#	106995
#	122157
#	133977
#	147315
#
# Disc length: 2115 seconds
#
# Revision: 0
# Processed by: cddbd v1.5.1PL0 Copyright (c) Steve Scherf et al.
# Submitted via: CDex 1.51
#
DISCID=a408410c
DTITLE=Bruno Martino - Made in Italy
DYEAR=2004
DGENRE=Jazz
TTITLE0=Baby Luna
TTITLE1=Estate
TTITLE2=Chica Cha Cha Cha
TTITLE3=Forse
TTITLE4=Marina
TTITLE5=Sono Stanco
TTITLE6=Dracula Cha Cha
TTITLE7=Cos'hai Trovato In Lui
TTITLE8=Bella Roma
TTITLE9=Nel Duemila
TTITLE10=Kiss Me, Kiss Me
TTITLE11=Por Dos Besos
EXTD=YEAR: 2004
EXTT0=
EXTT1=
EXTT2=
EXTT3=
EXTT4=
EXTT5=
EXTT6=
EXTT7=
EXTT8=
EXTT9=
EXTT10=
EXTT11=
PLAYORDER=
